<?xml version="1.0" encoding="UTF-8"?>
<svg width="15px" height="15px" fill="#0062ae" viewBox="0 0 15 15" version="1.1" xmlns="http://www.w3.org/2000/svg" xmlns:xlink="http://www.w3.org/1999/xlink">
            <path d="M1.83908531,10.7275228 C2.39821853,11.2873683 3.06989066,11.7353871 3.83771946,12.0708671 C4.62050597,12.406347 5.43605697,12.5666081 6.28366019,12.5666081 C7.59423997,12.5666081 8.77732312,12.199076 9.84857963,11.4632994 L12.902088,14.5168078 C13.1257413,14.7404611 13.3821591,14.853 13.7012568,14.853 C14.0210668,14.853 14.2774845,14.7404611 14.5168078,14.5168078 C14.7404611,14.2767723 14.853,14.0210668 14.853,13.7012568 C14.853,13.3978291 14.7404611,13.1257413 14.5168078,12.902088 L11.4632994,9.84857963 C12.199076,8.77732312 12.5666081,7.59423997 12.5666081,6.28366019 C12.5666081,5.43605697 12.406347,4.62050597 12.0708671,3.83700719 C11.7353871,3.06989066 11.2873683,2.39821853 10.7282351,1.83908531 C10.1683896,1.27923982 9.49671745,0.831933247 8.72960092,0.495741044 C7.94610214,0.160261114 7.13055114,1.77635684e-15 6.28366019,1.77635684e-15 C5.43605697,1.77635684e-15 4.62050597,0.160261114 3.83771946,0.495741044 C3.06989066,0.831933247 2.39821853,1.27923982 1.83908531,1.83908531 C1.27923982,2.39821853 0.831933247,3.06989066 0.495741044,3.83700719 C0.160261114,4.62050597 0,5.43605697 0,6.28366019 C0,7.13055114 0.160261114,7.94610214 0.495741044,8.72960092 C0.831933247,9.49671745 1.27923982,10.1683896 1.83908531,10.7275228 L1.83908531,10.7275228 Z M6.28366019,2.28639189 C7.38625665,2.28639189 8.33001654,2.67030629 9.11351532,3.45380506 C9.89630183,4.23730384 10.2802162,5.18035146 10.2802162,6.28366019 C10.2802162,7.38625665 9.89630183,8.33001654 9.11351532,9.11351532 C8.33001654,9.89630183 7.38625665,10.2802162 6.28366019,10.2802162 C5.18035146,10.2802162 4.23730384,9.89630183 3.45380506,9.11351532 C2.67030629,8.33001654 2.28639189,7.38625665 2.28639189,6.28366019 C2.28639189,5.18035146 2.67030629,4.23730384 3.45380506,3.45380506 C4.23730384,2.67030629 5.18035146,2.28639189 6.28366019,2.28639189 L6.28366019,2.28639189 Z" ></path>
</svg>
